<svg xmlns="http://www.w3.org/2000/svg" width="24px" height="24px" viewBox="-2 -2 24 24" version="1.1"><path d="M 0 1.43 C 0 .64 .64 0 1.43 0 L 18.56 0 C 19.35 0 20 .64 20 1.43 L 20 18.56 C 20 19.35 19.35 20 18.56 20 L 1.43 20 C .64 20 0 19.35 0 18.56 Z M 0 1.43 " fill="#c00" /><path d="M 7.88 11.42 L 7.88 15.71 L 5.37 15.71 L 5.37 3.52 L 10.12 3.52 C 11.04 3.52 11.84 3.69 12.54 4.02 C 13.23 4.36 13.76 4.83 14.14 5.45 C 14.51 6.07 14.70 6.77 14.70 7.56 C 14.70 8.75 14.29 9.69 13.48 10.38 C 12.66 11.07 11.53 11.42 10.08 11.42 Z M 7.88 9.38 L 10.12 9.38 C 10.79 9.38 11.30 9.23 11.64 8.91 C 11.99 8.60 12.17 8.16 12.17 7.57 C 12.17 6.98 11.99 6.5 11.64 6.12 C 11.29 5.76 10.80 5.57 10.18 5.56 L 7.88 5.56 Z M 7.88 9.38 " fill="#fff" fill-rule="nonzero" /></svg>