<svg xmlns="http://www.w3.org/2000/svg" width="100%" height="100%" viewBox="0 0 13 9" version="1.1"><path fill-rule="evenodd" fill-opacity="0.6471" fill="#000" d="M10,4 L11,4 L11,5 L10,5 L10,4 Z M10,7 L11,7 L11,8 L10,8 L10,7 Z M8,5 L10,5 L10,6 L8,6 L8,5 Z M7,7 L8,7 L8,8 L7,8 L7,7 Z M5,6 L6,6 L6,7 L5,7 L5,6 Z M2,7 L5,7 L5,8 L2,8 L2,7 Z M2,5 L5,5 L5,6 L2,6 L2,5 Z" /><path fill-rule="evenodd" fill="#fff" d="M11,5 L11,7 L10,7 L10,6 L10,5 L11,5 M10,5 L8,5 L8,6 L8,7 L7,7 L7,2 L8,2 L8,4 L10,4 L10,5 M10,2 L11,2 L11,4 L10,4 L10,2 M2,6 L5,6 L5,7 L2,7 M5,5 L6,5 L6,6 L5,6 M5,4 L3,4 L3,3 L6,3 L6,2 L2,2 L2,5 L5,5 L5,4 Z" /></svg>